<svg width="221" height="142" viewBox="0 0 221 142" fill="none" xmlns="http://www.w3.org/2000/svg">
<circle cx="89.5" cy="23.5" r="23.5" fill="#F5FAFF"/>
<circle cx="131.5" cy="70.5" r="23.5" fill="#B2DDFF"/>
<path d="M2.92 131V104.6H13.88C15.5067 104.6 16.96 104.747 18.24 105.04C19.52 105.307 20.6133 105.72 21.52 106.28C22.4533 106.84 23.16 107.573 23.64 108.48C24.1467 109.36 24.4 110.413 24.4 111.64C24.4 112.68 24.1733 113.587 23.72 114.36C23.2933 115.133 22.6133 115.76 21.68 116.24C20.7733 116.72 19.5733 117.053 18.08 117.24V117.84C20.6133 118.027 22.4667 118.667 23.64 119.76C24.84 120.827 25.44 122.267 25.44 124.08C25.44 125.6 25.04 126.88 24.24 127.92C23.4667 128.933 22.2933 129.707 20.72 130.24C19.1467 130.747 17.2 131 14.88 131H2.92ZM8.4 126.36H14.8C16.5067 126.36 17.7733 126.107 18.6 125.6C19.4267 125.067 19.84 124.253 19.84 123.16C19.84 121.907 19.32 120.973 18.28 120.36C17.24 119.72 15.6667 119.4 13.56 119.4H8.4V126.36ZM8.4 115.8H12.72C14.8 115.8 16.32 115.52 17.28 114.96C18.2667 114.373 18.76 113.52 18.76 112.4C18.76 111.28 18.32 110.467 17.44 109.96C16.56 109.427 15.2133 109.16 13.4 109.16H8.4V115.8ZM29.9447 131V120.84V110H34.7047L34.7447 117.16H35.5047C35.718 115.373 36.078 113.92 36.5847 112.8C37.118 111.68 37.8514 110.853 38.7847 110.32C39.718 109.787 40.878 109.52 42.2647 109.52C42.5047 109.52 42.758 109.533 43.0247 109.56C43.318 109.56 43.6514 109.6 44.0247 109.68L43.7847 115.8C43.3847 115.613 42.9447 115.48 42.4647 115.4C41.9847 115.32 41.558 115.28 41.1847 115.28C40.1447 115.28 39.2514 115.52 38.5047 116C37.758 116.48 37.1447 117.173 36.6647 118.08C36.2114 118.96 35.9047 120.04 35.7447 121.32V131H29.9447ZM51.8959 131.56C50.7226 131.56 49.6826 131.333 48.7759 130.88C47.8693 130.4 47.1626 129.72 46.6559 128.84C46.1493 127.96 45.8959 126.867 45.8959 125.56C45.8959 124.413 46.1093 123.453 46.5359 122.68C46.9893 121.907 47.6426 121.28 48.4959 120.8C49.3493 120.32 50.4026 119.92 51.6559 119.6C52.9093 119.28 54.3359 119 55.9359 118.76C56.7893 118.627 57.4826 118.507 58.0159 118.4C58.5759 118.267 58.9893 118.067 59.2559 117.8C59.5226 117.507 59.6559 117.093 59.6559 116.56C59.6559 115.813 59.3893 115.173 58.8559 114.64C58.3226 114.107 57.4826 113.84 56.3359 113.84C55.5626 113.84 54.8426 113.973 54.1759 114.24C53.5359 114.507 52.9759 114.907 52.4959 115.44C52.0426 115.973 51.7093 116.653 51.4959 117.48L46.4159 115.92C46.7359 114.827 47.1893 113.88 47.7759 113.08C48.3893 112.28 49.1226 111.613 49.9759 111.08C50.8293 110.52 51.8026 110.107 52.8959 109.84C53.9893 109.573 55.1759 109.44 56.4559 109.44C58.5093 109.44 60.1759 109.773 61.4559 110.44C62.7626 111.08 63.7359 112.093 64.3759 113.48C65.0159 114.84 65.3359 116.6 65.3359 118.76V122.36C65.3359 123.293 65.3493 124.24 65.3759 125.2C65.4293 126.16 65.4826 127.133 65.5359 128.12C65.6159 129.08 65.6959 130.04 65.7759 131H60.6959C60.5893 130.333 60.4826 129.573 60.3759 128.72C60.2959 127.84 60.2293 126.96 60.1759 126.08H59.4559C59.0826 127.093 58.5493 128.013 57.8559 128.84C57.1626 129.667 56.3093 130.333 55.2959 130.84C54.3093 131.32 53.1759 131.56 51.8959 131.56ZM54.3359 127.4C54.8426 127.4 55.3493 127.307 55.8559 127.12C56.3893 126.933 56.8959 126.68 57.3759 126.36C57.8826 126.013 58.3359 125.587 58.7359 125.08C59.1626 124.573 59.5093 124 59.7759 123.36L59.6959 120L60.6159 120.2C60.1359 120.547 59.5759 120.827 58.9359 121.04C58.2959 121.227 57.6293 121.373 56.9359 121.48C56.2693 121.587 55.6026 121.707 54.9359 121.84C54.2693 121.973 53.6693 122.147 53.1359 122.36C52.6293 122.573 52.2159 122.867 51.8959 123.24C51.6026 123.587 51.4559 124.08 51.4559 124.72C51.4559 125.547 51.7226 126.2 52.2559 126.68C52.7893 127.16 53.4826 127.4 54.3359 127.4ZM70.3744 131V118.28V110H75.0944L75.0544 116.28H75.8544C76.201 114.76 76.6944 113.493 77.3344 112.48C77.9744 111.467 78.7744 110.707 79.7344 110.2C80.721 109.693 81.881 109.44 83.2144 109.44C85.641 109.44 87.481 110.293 88.7344 112C90.0144 113.707 90.6544 116.387 90.6544 120.04V131H84.8544V120.68C84.8544 118.44 84.521 116.813 83.8544 115.8C83.2144 114.76 82.2677 114.24 81.0144 114.24C79.9477 114.24 79.0544 114.573 78.3344 115.24C77.6144 115.907 77.0677 116.787 76.6944 117.88C76.3477 118.947 76.161 120.147 76.1344 121.48V131H70.3744ZM103.288 131.56C101.528 131.56 99.9811 131.107 98.6478 130.2C97.3411 129.293 96.3278 128.013 95.6078 126.36C94.8878 124.707 94.5278 122.747 94.5278 120.48C94.5278 118.347 94.8478 116.453 95.4878 114.8C96.1278 113.147 97.0745 111.853 98.3278 110.92C99.5811 109.987 101.141 109.52 103.008 109.52C104.368 109.52 105.514 109.773 106.448 110.28C107.381 110.787 108.141 111.533 108.728 112.52C109.341 113.48 109.821 114.64 110.168 116H111.088C110.901 115.147 110.728 114.32 110.568 113.52C110.434 112.693 110.328 111.907 110.248 111.16C110.168 110.413 110.128 109.76 110.128 109.2V102.4H115.888V120.68V131H111.088V124.92H110.288C109.994 126.413 109.541 127.653 108.928 128.64C108.314 129.627 107.528 130.36 106.568 130.84C105.634 131.32 104.541 131.56 103.288 131.56ZM105.208 126.84C106.088 126.84 106.834 126.653 107.448 126.28C108.061 125.907 108.568 125.427 108.968 124.84C109.368 124.227 109.661 123.573 109.848 122.88C110.034 122.16 110.128 121.493 110.128 120.88V120.12C110.128 119.613 110.048 119.093 109.888 118.56C109.754 118 109.554 117.453 109.288 116.92C109.021 116.387 108.688 115.92 108.288 115.52C107.888 115.093 107.421 114.76 106.888 114.52C106.354 114.28 105.768 114.16 105.128 114.16C104.168 114.16 103.354 114.427 102.688 114.96C102.021 115.493 101.501 116.24 101.128 117.2C100.754 118.133 100.568 119.227 100.568 120.48C100.568 121.76 100.754 122.88 101.128 123.84C101.528 124.8 102.074 125.547 102.768 126.08C103.461 126.587 104.274 126.84 105.208 126.84ZM130.693 131V104.6H136.453V131H130.693ZM131.893 131V126.16H147.613V131H131.893ZM160.09 131.56C157.983 131.56 156.13 131.147 154.53 130.32C152.93 129.467 151.676 128.227 150.77 126.6C149.863 124.947 149.41 122.893 149.41 120.44C149.41 117.987 149.863 115.947 150.77 114.32C151.703 112.693 152.97 111.48 154.57 110.68C156.196 109.853 158.036 109.44 160.09 109.44C162.196 109.44 164.05 109.853 165.65 110.68C167.276 111.507 168.543 112.747 169.45 114.4C170.383 116.027 170.85 118.067 170.85 120.52C170.85 123 170.37 125.067 169.41 126.72C168.476 128.347 167.196 129.56 165.57 130.36C163.97 131.16 162.143 131.56 160.09 131.56ZM160.29 127.28C161.33 127.28 162.196 127.04 162.89 126.56C163.61 126.08 164.143 125.36 164.49 124.4C164.863 123.413 165.05 122.227 165.05 120.84C165.05 119.373 164.85 118.133 164.45 117.12C164.076 116.08 163.516 115.293 162.77 114.76C162.023 114.2 161.076 113.92 159.93 113.92C158.943 113.92 158.09 114.16 157.37 114.64C156.65 115.093 156.103 115.813 155.73 116.8C155.356 117.76 155.17 118.947 155.17 120.36C155.17 122.627 155.623 124.347 156.53 125.52C157.436 126.693 158.69 127.28 160.29 127.28ZM183.265 138.32C180.971 138.32 179.078 138.133 177.585 137.76C176.118 137.413 175.038 136.893 174.345 136.2C173.651 135.507 173.305 134.64 173.305 133.6C173.305 132.373 173.785 131.373 174.745 130.6C175.731 129.827 177.171 129.36 179.065 129.2V128.4C177.625 128.4 176.518 128.253 175.745 127.96C174.971 127.64 174.585 127.093 174.585 126.32C174.585 125.573 174.958 124.907 175.705 124.32C176.478 123.733 177.745 123.267 179.505 122.92V122.12C177.851 122.013 176.558 121.48 175.625 120.52C174.691 119.56 174.225 118.32 174.225 116.8C174.225 115.467 174.598 114.28 175.345 113.24C176.091 112.173 177.198 111.333 178.665 110.72C180.158 110.08 181.985 109.76 184.145 109.76H194.785V114.16L188.185 113.24V114.16C189.891 114.4 191.118 114.827 191.865 115.44C192.638 116.053 193.025 116.907 193.025 118C193.025 119.093 192.665 120.053 191.945 120.88C191.225 121.707 190.198 122.36 188.865 122.84C187.558 123.293 185.985 123.52 184.145 123.52C183.798 123.52 183.425 123.507 183.025 123.48C182.625 123.453 181.958 123.387 181.025 123.28C180.518 123.653 180.118 123.987 179.825 124.28C179.558 124.547 179.425 124.8 179.425 125.04C179.425 125.227 179.518 125.387 179.705 125.52C179.918 125.653 180.185 125.747 180.505 125.8C180.851 125.853 181.198 125.88 181.545 125.88H187.545C188.078 125.88 188.771 125.92 189.625 126C190.478 126.053 191.331 126.253 192.185 126.6C193.038 126.947 193.758 127.507 194.345 128.28C194.931 129.027 195.225 130.107 195.225 131.52C195.225 133.067 194.785 134.347 193.905 135.36C193.051 136.373 191.731 137.12 189.945 137.6C188.185 138.08 185.958 138.32 183.265 138.32ZM183.905 133.72C185.531 133.72 186.798 133.627 187.705 133.44C188.611 133.28 189.251 133 189.625 132.6C190.025 132.227 190.225 131.747 190.225 131.16C190.225 130.627 190.105 130.213 189.865 129.92C189.651 129.627 189.358 129.427 188.985 129.32C188.638 129.187 188.278 129.107 187.905 129.08C187.558 129.027 187.251 129 186.985 129H181.945C180.825 129.107 180.011 129.413 179.505 129.92C179.025 130.4 178.785 130.96 178.785 131.6C178.785 132.187 178.971 132.627 179.345 132.92C179.718 133.213 180.278 133.413 181.025 133.52C181.798 133.653 182.758 133.72 183.905 133.72ZM183.825 120.52C185.105 120.52 186.065 120.213 186.705 119.6C187.345 118.96 187.665 118.133 187.665 117.12C187.665 116.053 187.331 115.173 186.665 114.48C186.025 113.787 185.078 113.44 183.825 113.44C182.598 113.44 181.638 113.787 180.945 114.48C180.251 115.147 179.905 116.013 179.905 117.08C179.905 117.747 180.051 118.347 180.345 118.88C180.665 119.387 181.118 119.787 181.705 120.08C182.291 120.373 182.998 120.52 183.825 120.52ZM208.058 131.56C205.952 131.56 204.098 131.147 202.498 130.32C200.898 129.467 199.645 128.227 198.738 126.6C197.832 124.947 197.378 122.893 197.378 120.44C197.378 117.987 197.832 115.947 198.738 114.32C199.672 112.693 200.938 111.48 202.538 110.68C204.165 109.853 206.005 109.44 208.058 109.44C210.165 109.44 212.018 109.853 213.618 110.68C215.245 111.507 216.512 112.747 217.418 114.4C218.352 116.027 218.818 118.067 218.818 120.52C218.818 123 218.338 125.067 217.378 126.72C216.445 128.347 215.165 129.56 213.538 130.36C211.938 131.16 210.112 131.56 208.058 131.56ZM208.258 127.28C209.298 127.28 210.165 127.04 210.858 126.56C211.578 126.08 212.112 125.36 212.458 124.4C212.832 123.413 213.018 122.227 213.018 120.84C213.018 119.373 212.818 118.133 212.418 117.12C212.045 116.08 211.485 115.293 210.738 114.76C209.992 114.2 209.045 113.92 207.898 113.92C206.912 113.92 206.058 114.16 205.338 114.64C204.618 115.093 204.072 115.813 203.698 116.8C203.325 117.76 203.138 118.947 203.138 120.36C203.138 122.627 203.592 124.347 204.498 125.52C205.405 126.693 206.658 127.28 208.258 127.28Z" fill="#F5FAFF"/>
</svg>

