<svg width="25" height="24" viewBox="0 0 25 24" fill="none" xmlns="http://www.w3.org/2000/svg">
<path d="M10.7803 3.20417L3.90269 8.01847C3.03372 8.62675 2.55056 9.64868 2.63191 10.7063L3.33693 19.8715C3.42557 21.0239 4.46971 21.8615 5.61388 21.698L8.78349 21.2452C9.76879 21.1044 10.5006 20.2606 10.5006 19.2653V17.9999C10.5006 16.8953 11.3961 15.9999 12.5006 15.9999C13.6052 15.9999 14.5006 16.8953 14.5006 17.9999V19.2653C14.5006 20.2606 15.2325 21.1044 16.2178 21.2452L19.3874 21.698C20.5316 21.8615 21.5757 21.0239 21.6644 19.8715L22.3694 10.7063C22.4507 9.64868 21.9676 8.62675 21.0986 8.01847L14.221 3.20417C13.1881 2.4811 11.8132 2.4811 10.7803 3.20417Z" fill="#1570EF"/>
</svg>

