<svg width="25" height="24" viewBox="0 0 25 24" fill="none" xmlns="http://www.w3.org/2000/svg">
<path d="M14.5 17.5C14.5 16.9477 14.9477 16.5 15.5 16.5H20C20.5523 16.5 21 16.9477 21 17.5C21 18.0523 20.5523 18.5 20 18.5H15.5C14.9477 18.5 14.5 18.0523 14.5 17.5Z" fill="#667085"/>
<path d="M11 16.5C10.4477 16.5 10 16.9477 10 17.5C10 18.0523 10.4477 18.5 11 18.5H13C13.5523 18.5 14 18.0523 14 17.5C14 16.9477 13.5523 16.5 13 16.5H11Z" fill="#667085"/>
<path fill-rule="evenodd" clip-rule="evenodd" d="M23.5 17.5V6C23.5 3.79086 21.7091 2 19.5 2H5.5C3.29086 2 1.5 3.79086 1.5 6V17.5C1.5 19.7091 3.29086 21.5 5.5 21.5H19.5C21.7091 21.5 23.5 19.7091 23.5 17.5ZM5.5 4C4.39543 4 3.5 4.89543 3.5 6V14.0351C4.08835 13.6948 4.77143 13.5 5.5 13.5H19.5C20.2286 13.5 20.9117 13.6948 21.5 14.0351V6C21.5 4.89543 20.6046 4 19.5 4H5.5ZM21.5 17.5C21.5 16.3954 20.6046 15.5 19.5 15.5H5.5C4.39543 15.5 3.5 16.3954 3.5 17.5C3.5 18.6046 4.39543 19.5 5.5 19.5H19.5C20.6046 19.5 21.5 18.6046 21.5 17.5Z" fill="#667085"/>
</svg>

