<svg width="40" height="40" viewBox="0 0 40 40" fill="none" xmlns="http://www.w3.org/2000/svg">
<rect x="0.5" y="0.5" width="39" height="39" rx="7.5" fill="#F2F4F7"/>
<rect x="0.5" y="0.5" width="39" height="39" rx="7.5" stroke="#E4E7EC"/>
<path d="M21.0002 11C21.0002 10.4477 20.5525 10 20.0002 10C19.4479 10 19.0002 10.4477 19.0002 11V12.5C19.0002 12.5277 19.0013 12.5552 19.0035 12.5824C16.1642 13.0569 14.0002 15.5247 14.0002 18.4989V22.5C14.0002 23.0002 13.5901 23.8676 13.1413 24.6671C12.5098 25.7921 12.6254 27.1484 13.8311 27.6075C15.0437 28.0692 16.9835 28.5 20.0002 28.5C23.0169 28.5 24.9567 28.0692 26.1693 27.6075C27.375 27.1484 27.4906 25.7921 26.8591 24.6671C26.4103 23.8676 26.0002 23.0002 26.0002 22.5V18.4994C26.0002 15.5252 23.8362 13.057 20.9969 12.5824C20.9991 12.5552 21.0002 12.5277 21.0002 12.5V11Z" fill="#667085"/>
<path d="M16.9203 29.3246C16.9576 29.3572 17.0027 29.3952 17.0552 29.4372C17.2055 29.5574 17.4202 29.7132 17.6916 29.8683C18.2301 30.176 19.0264 30.5 20.0002 30.5C20.974 30.5 21.7703 30.176 22.3089 29.8683C22.5802 29.7132 22.7949 29.5574 22.9452 29.4372C22.9977 29.3952 23.0428 29.3572 23.0801 29.3246C22.2058 29.4335 21.1862 29.5 20.0002 29.5C18.8142 29.5 17.7947 29.4335 16.9203 29.3246Z" fill="#667085"/>
</svg>

