<svg width="25" height="24" viewBox="0 0 25 24" fill="none" xmlns="http://www.w3.org/2000/svg">
<path d="M5.5 6.5C4.94772 6.5 4.5 6.94772 4.5 7.5C4.5 8.05228 4.94772 8.5 5.5 8.5H7.5C8.05228 8.5 8.5 8.05228 8.5 7.5C8.5 6.94772 8.05228 6.5 7.5 6.5H5.5Z" fill="#667085"/>
<path d="M16.5 7.5C16.5 6.94772 16.9477 6.5 17.5 6.5H19.5C20.0523 6.5 20.5 6.94772 20.5 7.5C20.5 8.05228 20.0523 8.5 19.5 8.5H17.5C16.9477 8.5 16.5 8.05228 16.5 7.5Z" fill="#667085"/>
<path d="M5.5 15.5C4.94772 15.5 4.5 15.9477 4.5 16.5C4.5 17.0523 4.94772 17.5 5.5 17.5H7.5C8.05228 17.5 8.5 17.0523 8.5 16.5C8.5 15.9477 8.05228 15.5 7.5 15.5H5.5Z" fill="#667085"/>
<path d="M16.5 16.5C16.5 15.9477 16.9477 15.5 17.5 15.5H19.5C20.0523 15.5 20.5 15.9477 20.5 16.5C20.5 17.0523 20.0523 17.5 19.5 17.5H17.5C16.9477 17.5 16.5 17.0523 16.5 16.5Z" fill="#667085"/>
<path fill-rule="evenodd" clip-rule="evenodd" d="M12.5 9C14.1569 9 15.5 10.3431 15.5 12C15.5 13.6569 14.1569 15 12.5 15C10.8431 15 9.5 13.6569 9.5 12C9.5 10.3431 10.8431 9 12.5 9ZM13.5 12C13.5 11.4477 13.0523 11 12.5 11C11.9477 11 11.5 11.4477 11.5 12C11.5 12.5523 11.9477 13 12.5 13C13.0523 13 13.5 12.5523 13.5 12Z" fill="#667085"/>
<path fill-rule="evenodd" clip-rule="evenodd" d="M5.5 4C3.29086 4 1.5 5.79086 1.5 8V16C1.5 18.2091 3.29086 20 5.5 20H19.5C21.7091 20 23.5 18.2091 23.5 16V8C23.5 5.79086 21.7091 4 19.5 4H5.5ZM3.5 8C3.5 6.89543 4.39543 6 5.5 6H19.5C20.6046 6 21.5 6.89543 21.5 8V16C21.5 17.1046 20.6046 18 19.5 18H5.5C4.39543 18 3.5 17.1046 3.5 16V8Z" fill="#667085"/>
</svg>

