<svg width="20" height="21" viewBox="0 0 20 21" fill="none" xmlns="http://www.w3.org/2000/svg">
<path d="M3.33301 5.49984C3.33301 5.0396 3.7061 4.6665 4.16634 4.6665H15.833C16.2932 4.6665 16.6663 5.0396 16.6663 5.49984C16.6663 5.96007 16.2932 6.33317 15.833 6.33317H4.16634C3.7061 6.33317 3.33301 5.96007 3.33301 5.49984Z" fill="#667085"/>
<path d="M4.99967 10.4998C4.99967 10.0396 5.37277 9.6665 5.83301 9.6665H14.1663C14.6266 9.6665 14.9997 10.0396 14.9997 10.4998C14.9997 10.9601 14.6266 11.3332 14.1663 11.3332H5.83301C5.37277 11.3332 4.99967 10.9601 4.99967 10.4998Z" fill="#667085"/>
<path d="M7.49967 14.6665C7.03944 14.6665 6.66634 15.0396 6.66634 15.4998C6.66634 15.9601 7.03944 16.3332 7.49967 16.3332H12.4997C12.9599 16.3332 13.333 15.9601 13.333 15.4998C13.333 15.0396 12.9599 14.6665 12.4997 14.6665H7.49967Z" fill="#667085"/>
</svg>

