<svg width="58" height="72" viewBox="0 0 58 72" fill="none" xmlns="http://www.w3.org/2000/svg">
<path d="M36.2304 7.81354L11.1523 36.8037C10.3696 37.7084 10.7785 39.1192 11.9237 39.4652L26.8778 43.9833C27.7509 44.2472 28.2449 45.1688 27.9811 46.042L22.5277 64.0916C22.0122 65.7979 24.1916 66.9979 25.3578 65.6498L50.4359 36.6597C51.2185 35.755 50.8096 34.3442 49.6645 33.9982L34.7104 29.48C33.8372 29.2162 33.3432 28.2945 33.607 27.4214L39.0605 9.37174C39.576 7.66548 37.3965 6.4655 36.2304 7.81354Z" fill="#F5FAFF"/>
<path d="M32.8593 6.09699L7.78118 35.0871C6.99853 35.9918 7.40743 37.4026 8.55258 37.7486L23.5067 42.2668C24.3798 42.5306 24.8738 43.4523 24.61 44.3255L19.1566 62.3751C18.6411 64.0813 20.8205 65.2813 21.9867 63.9333L47.0648 34.9432C47.8474 34.0384 47.4385 32.6276 46.2934 32.2817L31.3393 27.7635C30.4661 27.4997 29.9721 26.578 30.236 25.7048L35.6894 7.65519C36.2049 5.94893 34.0254 4.74895 32.8593 6.09699Z" fill="#1570EF"/>
</svg>

